<svg width="24" height="24" viewBox="0 0 24 24" fill="none" xmlns="http://www.w3.org/2000/svg">
<path fill-rule="evenodd" clip-rule="evenodd" d="M16.5136 21.5H8.16579C5.09943 21.5 2.74703 20.3925 3.41522 15.9348L4.19325 9.8936C4.60515 7.66934 6.02392 6.81808 7.26877 6.81808H17.4473C18.7104 6.81808 20.0468 7.73342 20.5228 9.8936L21.3008 15.9348C21.8683 19.889 19.58 21.5 16.5136 21.5Z" stroke="#53545C" stroke-width="1.5" stroke-linecap="round" stroke-linejoin="round"/>
<path d="M16.651 6.5984C16.651 4.21233 14.7167 2.27804 12.3306 2.27804V2.27804C11.1816 2.27317 10.078 2.7262 9.26381 3.53695C8.44963 4.34771 7.99193 5.44939 7.99194 6.5984H7.99194" stroke="#53545C" stroke-width="1.5" stroke-linecap="round" stroke-linejoin="round"/>
<path d="M15.2962 11.1018H15.2505" stroke="#53545C" stroke-width="1.5" stroke-linecap="round" stroke-linejoin="round"/>
<path d="M9.46566 11.1018H9.41989" stroke="#53545C" stroke-width="1.5" stroke-linecap="round" stroke-linejoin="round"/>
</svg>
