<svg width="13" height="12" viewBox="0 0 13 12" fill="none" xmlns="http://www.w3.org/2000/svg">
<path d="M3.5 6H8C8.53043 6 9.03914 6.21071 9.41421 6.58579C9.78929 6.96086 10 7.46957 10 8C10 8.53043 9.78929 9.03914 9.41421 9.41421C9.03914 9.78929 8.53043 10 8 10H3.5V6Z" stroke="black" stroke-width="1.2" stroke-linecap="round" stroke-linejoin="round"/>
<path d="M3.5 2H7.5C8.03043 2 8.53914 2.21071 8.91421 2.58579C9.28929 2.96086 9.5 3.46957 9.5 4C9.5 4.53043 9.28929 5.03914 8.91421 5.41421C8.53914 5.78929 8.03043 6 7.5 6H3.5V2Z" stroke="black" stroke-width="1.2" stroke-linecap="round" stroke-linejoin="round"/>
</svg>
