<svg width="17" height="16" viewBox="0 0 17 16" fill="none" xmlns="http://www.w3.org/2000/svg">
<g clip-path="url(#clip0_3793_1019)">
<path d="M10.5 4.66667H12.5C12.9377 4.66667 13.3712 4.75289 13.7756 4.9204C14.18 5.08792 14.5475 5.33345 14.857 5.64298C15.1665 5.95251 15.412 6.31997 15.5796 6.72439C15.7471 7.12881 15.8333 7.56226 15.8333 8C15.8333 8.43774 15.7471 8.87119 15.5796 9.27561C15.412 9.68003 15.1665 10.0475 14.857 10.357C14.5475 10.6666 14.18 10.9121 13.7756 11.0796C13.3712 11.2471 12.9377 11.3333 12.5 11.3333H10.5M6.49996 11.3333H4.49996C4.06222 11.3333 3.62877 11.2471 3.22435 11.0796C2.81993 10.9121 2.45247 10.6666 2.14294 10.357C1.51782 9.7319 1.16663 8.88405 1.16663 8C1.16663 7.11594 1.51782 6.2681 2.14294 5.64298C2.76806 5.01786 3.6159 4.66667 4.49996 4.66667H6.49996" stroke="black" stroke-width="1.2" stroke-linecap="round" stroke-linejoin="round"/>
<path d="M5.83337 8H11.1667" stroke="black" stroke-width="1.2" stroke-linecap="round" stroke-linejoin="round"/>
</g>
<defs>
<clipPath id="clip0_3793_1019">
<rect width="16" height="16" fill="white" transform="translate(0.5)"/>
</clipPath>
</defs>
</svg>
