<svg width="20" height="20" viewBox="0 0 20 20" fill="none" xmlns="http://www.w3.org/2000/svg">
<path d="M16.104 7.89017C16.104 7.89017 15.6515 13.5027 15.389 15.8668C15.264 16.996 14.5665 17.6577 13.424 17.6785C11.2499 17.7177 9.0732 17.7202 6.89986 17.6743C5.8007 17.6518 5.11486 16.9818 4.99236 15.8727C4.7282 13.4877 4.2782 7.89017 4.2782 7.89017" stroke="#130F26" stroke-width="1.5" stroke-linecap="round" stroke-linejoin="round"/>
<path d="M17.2568 5.19975H3.12512" stroke="#130F26" stroke-width="1.5" stroke-linecap="round" stroke-linejoin="round"/>
<path d="M14.5337 5.19975C13.8796 5.19975 13.3162 4.73725 13.1879 4.09642L12.9854 3.08308C12.8604 2.61558 12.4371 2.29225 11.9546 2.29225H8.42707C7.94457 2.29225 7.52123 2.61558 7.39623 3.08308L7.19373 4.09642C7.0654 4.73725 6.50207 5.19975 5.8479 5.19975" stroke="#130F26" stroke-width="1.5" stroke-linecap="round" stroke-linejoin="round"/>
</svg>
